<svg width="50" height="50" viewBox="0 0 50 50" fill="none" xmlns="http://www.w3.org/2000/svg">
<path d="M26.5622 8.33325C26.5622 7.47031 25.8626 6.77075 24.9997 6.77075C24.1367 6.77075 23.4372 7.47031 23.4372 8.33325L23.4372 23.4374H8.33301C7.47006 23.4374 6.77051 24.137 6.77051 24.9999C6.77051 25.8629 7.47006 26.5624 8.33301 26.5624H23.4372V41.6666C23.4372 42.5295 24.1367 43.2291 24.9997 43.2291C25.8626 43.2291 26.5622 42.5295 26.5622 41.6666V26.5624H41.6663C42.5293 26.5624 43.2288 25.8629 43.2288 24.9999C43.2288 24.137 42.5293 23.4374 41.6663 23.4374H26.5622L26.5622 8.33325Z" fill="#034B48"/>
</svg>
