<svg width="14" height="14" viewBox="0 0 14 14" fill="none" xmlns="http://www.w3.org/2000/svg">
<path fill-rule="evenodd" clip-rule="evenodd" d="M7.00002 5.97925C6.11406 5.97925 5.39585 6.69746 5.39585 7.58341C5.39585 8.3177 5.88921 8.93676 6.56252 9.1272V11.0834C6.56252 11.325 6.7584 11.5209 7.00002 11.5209C7.24164 11.5209 7.43752 11.325 7.43752 11.0834V9.1272C8.11083 8.93676 8.60419 8.3177 8.60419 7.58341C8.60419 6.69746 7.88598 5.97925 7.00002 5.97925ZM6.27085 7.58341C6.27085 7.18071 6.59731 6.85425 7.00002 6.85425C7.40273 6.85425 7.72919 7.18071 7.72919 7.58341C7.72919 7.98612 7.40273 8.31258 7.00002 8.31258C6.59731 8.31258 6.27085 7.98612 6.27085 7.58341Z" fill="#FAFAFA"/>
<path fill-rule="evenodd" clip-rule="evenodd" d="M7.00002 0.729248C5.14756 0.729248 3.64585 2.23096 3.64585 4.08341V4.38838L3.63019 4.39341C2.60906 4.7252 1.80847 5.52578 1.47668 6.54692C1.31226 7.05297 1.31235 7.66035 1.31251 8.65567V8.84449C1.31235 9.83982 1.31226 10.4472 1.47668 10.9532C1.80847 11.9744 2.60906 12.775 3.63019 13.1068C4.13624 13.2712 4.74361 13.2711 5.73893 13.2709H8.26111C9.25643 13.2711 9.8638 13.2712 10.3698 13.1068C11.391 12.775 12.1916 11.9744 12.5234 10.9532C12.6878 10.4472 12.6877 9.83982 12.6875 8.8445V8.65566C12.6877 7.66034 12.6878 7.05297 12.5234 6.54692C12.1916 5.52578 11.391 4.7252 10.3698 4.39341L10.3542 4.38838V4.08341C10.3542 2.23096 8.85248 0.729248 7.00002 0.729248ZM5.78437 4.22925C5.2715 4.22923 4.86216 4.22921 4.52085 4.24854V4.08341C4.52085 2.71421 5.63081 1.60425 7.00002 1.60425C8.36923 1.60425 9.47919 2.71421 9.47919 4.08341V4.24854C9.13787 4.22921 8.72854 4.22923 8.21567 4.22925H5.78437ZM4.15603 5.1645C4.50463 5.10577 4.97477 5.10425 5.83335 5.10425H8.16669C9.02527 5.10425 9.49541 5.10577 9.84401 5.1645C9.9404 5.18074 10.0235 5.20091 10.0995 5.22559C10.8542 5.47082 11.4459 6.06256 11.6912 6.81731C11.8071 7.17414 11.8125 7.63028 11.8125 8.75008C11.8125 9.86988 11.8071 10.326 11.6912 10.6829C11.4459 11.4376 10.8542 12.0293 10.0995 12.2746C9.74263 12.3905 9.28649 12.3959 8.16669 12.3959H5.83335C4.71355 12.3959 4.25741 12.3905 3.90058 12.2746C3.14583 12.0293 2.55409 11.4376 2.30886 10.6829C2.19292 10.326 2.18752 9.86988 2.18752 8.75008C2.18752 7.63028 2.19292 7.17414 2.30886 6.81731C2.55409 6.06256 3.14583 5.47082 3.90058 5.22559C3.97652 5.20091 4.05964 5.18074 4.15603 5.1645Z" fill="#FAFAFA"/>
</svg>
