<svg width="100" height="100" viewBox="0 0 100 100" fill="none" xmlns="http://www.w3.org/2000/svg">
<circle cx="50" cy="50" r="50" fill="#F2F2F2"/>
<path fill-rule="evenodd" clip-rule="evenodd" d="M48.1249 27.6042C41.0508 27.6042 35.5775 33.8043 36.4549 40.8238L36.6203 42.1464C36.8622 44.0817 36.1552 46.0148 34.7219 47.3375C31.7517 50.0783 30.9265 54.4407 32.6904 58.077L32.9057 58.5209C34.5498 61.9103 37.9858 64.0626 41.753 64.0626H58.8797C62.1291 64.0626 65.1533 62.4025 66.898 59.6612C69.3607 55.7916 68.7085 50.7151 65.3474 47.5938L65.256 47.5088C63.7174 46.0799 62.9599 43.9983 63.2203 41.9147L63.3549 40.8377C64.2333 33.8109 58.7542 27.6042 51.6726 27.6042H48.1249ZM39.5558 40.4361C38.9115 35.2819 42.9305 30.7292 48.1249 30.7292H51.6726C56.8745 30.7292 60.8993 35.2884 60.254 40.4501L60.1194 41.5271C59.7343 44.6079 60.8544 47.6859 63.1294 49.7987L63.2209 49.8836C65.4768 51.9787 65.9146 55.386 64.2616 57.9834C63.0906 59.8233 61.0607 60.9376 58.8797 60.9376H41.753C39.183 60.9376 36.839 59.4693 35.7174 57.1571L35.5021 56.7132C34.3394 54.3162 34.8833 51.4407 36.8412 49.6341C39.0157 47.6275 40.0881 44.6948 39.7211 41.7587L39.5558 40.4361Z" fill="#047E78"/>
<path d="M45.382 67.8126C44.8642 67.1222 43.8848 66.9823 43.1945 67.5001C42.5041 68.0178 42.3642 68.9972 42.882 69.6876L43.507 70.5209C46.9445 75.1042 53.8195 75.1042 57.257 70.5209L57.882 69.6876C58.3998 68.9972 58.2598 68.0178 57.5695 67.5001C56.8791 66.9823 55.8998 67.1222 55.382 67.8126L54.757 68.6459C52.5695 71.5626 48.1945 71.5626 46.007 68.6459L45.382 67.8126Z" fill="#047E78"/>
</svg>
