<svg width="100" height="100" viewBox="0 0 100 100" fill="none" xmlns="http://www.w3.org/2000/svg">
<circle cx="50" cy="50" r="50" fill="#F2F2F2"/>
<path fill-rule="evenodd" clip-rule="evenodd" d="M49.9998 27.6041C44.5345 27.6041 40.104 32.0346 40.104 37.5C40.104 42.9653 44.5345 47.3958 49.9998 47.3958C55.4652 47.3958 59.8957 42.9653 59.8957 37.5C59.8957 32.0346 55.4652 27.6041 49.9998 27.6041ZM43.229 37.5C43.229 33.7605 46.2604 30.7291 49.9998 30.7291C53.7393 30.7291 56.7707 33.7605 56.7707 37.5C56.7707 41.2394 53.7393 44.2708 49.9998 44.2708C46.2604 44.2708 43.229 41.2394 43.229 37.5Z" fill="#047E78"/>
<path fill-rule="evenodd" clip-rule="evenodd" d="M43.7498 50.5208C38.2845 50.5208 33.854 54.9513 33.854 60.4166C33.854 65.8819 38.2845 70.3125 43.7498 70.3125H56.2498C61.7152 70.3125 66.1457 65.8819 66.1457 60.4166C66.1457 54.9513 61.7152 50.5208 56.2498 50.5208H43.7498ZM36.979 60.4166C36.979 56.6772 40.0104 53.6458 43.7498 53.6458H56.2498C59.9893 53.6458 63.0207 56.6772 63.0207 60.4166C63.0207 64.1561 59.9893 67.1875 56.2498 67.1875H43.7498C40.0104 67.1875 36.979 64.1561 36.979 60.4166Z" fill="#047E78"/>
<path d="M22 25L24.6942 33.2918H33.4127L26.3593 38.4164L29.0534 46.7082L22 41.5836L14.9466 46.7082L17.6407 38.4164L10.5873 33.2918H19.3058L22 25Z" fill="#047E78"/>
<path d="M80.5 41L83.7555 51.0193L94.2903 51.0193L85.7674 57.2115L89.0229 67.2307L80.5 61.0385L71.9771 67.2307L75.2326 57.2115L66.7097 51.0193L77.2445 51.0193L80.5 41Z" fill="#047E78"/>
</svg>
