<svg width="18" height="24" viewBox="0 0 18 24" fill="none" xmlns="http://www.w3.org/2000/svg">
<path d="M11.7222 20.1833L11.132 19.7205L11.7222 20.1833ZM6.16061 20.1833L5.57044 20.6461L6.16061 20.1833ZM8.94141 22.4883V21.7383V22.4883ZM16.1914 10.0915C16.1914 11.318 15.5518 12.9592 14.5452 14.7388C13.5551 16.4891 12.2756 18.2621 11.132 19.7205L12.3124 20.6461C13.4785 19.159 14.8086 17.3197 15.8508 15.4773C16.8763 13.6642 17.6914 11.7322 17.6914 10.0915H16.1914ZM6.75079 19.7205C5.60719 18.2621 4.32769 16.4891 3.33766 14.7388C2.33103 12.9592 1.69141 11.318 1.69141 10.0915H0.191406C0.191406 11.7322 1.00651 13.6642 2.03205 15.4773C3.07418 17.3197 4.40428 19.159 5.57044 20.6461L6.75079 19.7205ZM1.69141 10.0915C1.69141 5.6985 4.98819 2.23279 8.94141 2.23279V0.732788C4.05807 0.732788 0.191406 4.97556 0.191406 10.0915H1.69141ZM8.94141 2.23279C12.8946 2.23279 16.1914 5.6985 16.1914 10.0915H17.6914C17.6914 4.97556 13.8247 0.732788 8.94141 0.732788V2.23279ZM11.132 19.7205C10.5131 20.5098 10.1055 21.0254 9.74059 21.3569C9.40776 21.6592 9.18558 21.7383 8.94141 21.7383V23.2383C9.67046 23.2383 10.2362 22.9332 10.7492 22.4672C11.23 22.0303 11.7263 21.3934 12.3124 20.6461L11.132 19.7205ZM5.57044 20.6461C6.15652 21.3934 6.65277 22.0303 7.13365 22.4672C7.64665 22.9332 8.21235 23.2383 8.94141 23.2383V21.7383C8.69723 21.7383 8.47506 21.6592 8.14222 21.3569C7.77728 21.0254 7.36975 20.5098 6.75079 19.7205L5.57044 20.6461ZM5.19141 10.4828C5.19141 12.5539 6.87034 14.2328 8.94141 14.2328V12.7328C7.69877 12.7328 6.69141 11.7254 6.69141 10.4828H5.19141ZM8.94141 14.2328C11.0125 14.2328 12.6914 12.5539 12.6914 10.4828H11.1914C11.1914 11.7254 10.184 12.7328 8.94141 12.7328V14.2328ZM12.6914 10.4828C12.6914 8.41172 11.0125 6.73279 8.94141 6.73279V8.23279C10.184 8.23279 11.1914 9.24015 11.1914 10.4828H12.6914ZM8.94141 6.73279C6.87034 6.73279 5.19141 8.41172 5.19141 10.4828H6.69141C6.69141 9.24015 7.69877 8.23279 8.94141 8.23279V6.73279Z" fill="#FAFAFA"/>
</svg>
