<svg width="24" height="24" viewBox="0 0 24 24" fill="none" xmlns="http://www.w3.org/2000/svg">
<g clip-path="url(#clip0_690_3083)">
<path d="M21 17C21 17.7167 20.8167 18.3833 20.45 19C20.1 19.6167 19.6167 20.1083 19 20.475C18.3833 20.825 17.7167 21 17 21H7C6.28333 21 5.61667 20.825 5 20.475C4.38333 20.1083 3.89167 19.6167 3.525 19C3.175 18.3833 3 17.7167 3 17V16C3 15.5833 3.16667 15.3 3.5 15.15C3.83333 14.9833 4.16667 14.9833 4.5 15.15C4.83333 15.3 5 15.5833 5 16V17C5 17.6167 5.175 18.1083 5.525 18.475C5.89167 18.825 6.38333 19 7 19H17C17.6167 19 18.1 18.825 18.45 18.475C18.8167 18.1083 19 17.6167 19 17V16C19 15.6833 19.1 15.4417 19.3 15.275C19.5 15.1083 19.7333 15.025 20 15.025C20.2667 15.025 20.5 15.1083 20.7 15.275C20.9 15.4417 21 15.6833 21 16V17ZM8.7 8.7C8.41667 8.98333 8.09167 9.06667 7.725 8.95C7.375 8.83333 7.14167 8.60833 7.025 8.275C6.90833 7.925 7 7.6 7.3 7.3L11.275 3.3C11.4917 3.08333 11.7333 2.975 12 2.975C12.2667 2.975 12.5083 3.08333 12.725 3.3L16.7 7.3C16.9833 7.58333 17.0667 7.90833 16.95 8.275C16.8333 8.625 16.6 8.85833 16.25 8.975C15.9167 9.09167 15.6 9 15.3 8.7L12 5.425L8.7 8.7ZM11 4H13V16C13 16.4167 12.8333 16.7083 12.5 16.875C12.1667 17.025 11.8333 17.025 11.5 16.875C11.1667 16.7083 11 16.4167 11 16V4Z" fill="#F2F2F2"/>
</g>
<defs>
<clipPath id="clip0_690_3083">
<rect width="23.7907" height="23.7907" fill="white"/>
</clipPath>
</defs>
</svg>
